<svg width="18" height="19" viewBox="0 0 18 19" fill="none" xmlns="http://www.w3.org/2000/svg">
<path d="M10.3724 8.2118C9.64433 7.48403 8.65703 7.0752 7.6276 7.0752C6.59817 7.0752 5.61087 7.48403 4.8828 8.2118L2.13712 10.9566C1.40903 11.6847 1 12.6722 1 13.7019C1 14.7315 1.40903 15.719 2.13712 16.4471C2.8652 17.1752 3.85269 17.5842 4.88236 17.5842C5.91202 17.5842 6.89952 17.1752 7.6276 16.4471L9 15.0747" stroke="white" stroke-width="1.66667" stroke-linecap="round" stroke-linejoin="round"/>
<path d="M7.62744 10.9567C8.35551 11.6844 9.34281 12.0933 10.3722 12.0933C11.4017 12.0933 12.389 11.6844 13.117 10.9567L15.8627 8.21185C16.5908 7.48376 16.9998 6.49627 16.9998 5.4666C16.9998 4.43693 16.5908 3.44943 15.8627 2.72135C15.1346 1.99326 14.1471 1.58423 13.1175 1.58423C12.0878 1.58423 11.1003 1.99326 10.3722 2.72135L8.99984 4.09375" stroke="white" stroke-width="1.66667" stroke-linecap="round" stroke-linejoin="round"/>
</svg>
