<svg width="46" height="48" viewBox="0 0 46 48" fill="none" xmlns="http://www.w3.org/2000/svg">
<path d="M45.7513 29.3195C45.5359 28.6683 44.8428 28.4588 43.6912 28.6966C40.2721 29.4023 39.0477 28.9135 38.6456 28.6174C41.3033 24.5688 43.4896 19.6747 44.669 15.1086C45.2277 12.9457 45.5363 10.9369 45.5616 9.2996C45.5895 7.50259 45.2834 6.18204 44.6521 5.37535C42.1071 2.12333 38.3718 0.378927 33.8503 0.331072C30.7419 0.296131 28.1156 1.09162 27.6065 1.31532C26.5343 1.0487 25.3655 0.885006 24.093 0.864117C21.7595 0.826328 19.7424 1.38501 18.0724 2.52383C17.347 2.25379 15.4723 1.61023 13.1797 1.24088C9.21611 0.602817 6.06646 1.0863 3.81882 2.6786C1.13688 4.57872 -0.101258 7.97525 0.138584 12.7736C0.219291 14.3879 1.13916 19.3542 2.59074 24.1102C4.5015 30.37 6.57861 33.9137 8.76396 34.6427C9.01976 34.728 9.31467 34.7876 9.63997 34.7876C10.4372 34.7876 11.4146 34.4283 12.4315 33.2057C13.6718 31.7178 14.9549 30.266 16.279 28.8521C17.1381 29.3132 18.0819 29.5707 19.0472 29.5965C19.0491 29.6218 19.0515 29.647 19.0538 29.6721C18.8876 29.8702 18.7249 30.0712 18.5658 30.275C17.8969 31.1241 17.7577 31.3009 15.6049 31.7441C14.9924 31.8706 13.366 32.2057 13.342 33.3459C13.3162 34.5916 15.2648 35.1148 15.4868 35.1702C16.2604 35.3639 17.0058 35.4595 17.7165 35.4595C19.4452 35.4595 20.9665 34.8913 22.1822 33.792C22.1448 38.2329 22.3299 42.6089 22.8632 43.9422C23.2999 45.0338 24.3668 47.7013 27.7367 47.7011C28.2312 47.7011 28.7755 47.6435 29.3742 47.5152C32.8913 46.7613 34.4187 45.2068 35.0095 41.7797C35.3256 39.9481 35.8682 35.5745 36.1234 33.2285C36.662 33.3966 37.3553 33.4735 38.1048 33.4733C39.668 33.4733 41.4719 33.1412 42.6031 32.6161C43.8739 32.0259 46.1671 30.5777 45.7513 29.3195ZM37.3756 13.4667C37.364 14.1593 37.2687 14.788 37.1677 15.4443C37.0588 16.1502 36.9464 16.88 36.9181 17.7658C36.8902 18.628 36.9979 19.5243 37.102 20.3912C37.3124 22.1421 37.5283 23.9446 36.6925 25.7232C36.5537 25.4772 36.43 25.2229 36.3222 24.9619C36.2184 24.7101 35.9928 24.3056 35.6804 23.7458C34.4652 21.5665 31.6196 16.4631 33.0763 14.3807C33.5102 13.7609 34.6114 13.1236 37.3756 13.4667ZM34.025 1.73347C38.0763 1.82292 41.281 3.3385 43.55 6.23787C45.2902 8.46177 43.3739 18.5809 37.8264 27.3107C37.7706 27.2398 37.7145 27.1691 37.6582 27.0986L37.5879 27.0109C39.0214 24.6434 38.7412 22.301 38.4916 20.2243C38.3891 19.372 38.2922 18.567 38.3169 17.8109C38.3424 17.0095 38.4483 16.322 38.5509 15.6574C38.6768 14.8384 38.805 13.9909 38.7696 12.9918C38.796 12.887 38.8067 12.7632 38.7928 12.6162C38.7026 11.6581 37.6088 8.79086 35.3794 6.19571C34.1599 4.77622 32.3815 3.18772 29.9532 2.11631C30.9977 1.89982 32.4259 1.69796 34.025 1.73347ZM11.3553 32.3109C10.2349 33.6581 9.46127 33.3998 9.20681 33.3151C7.54899 32.7621 5.62532 29.2581 3.92934 23.7017C2.4618 18.8938 1.60422 14.0592 1.53624 12.7035C1.32203 8.416 2.36135 5.42795 4.62551 3.82217C8.3103 1.20916 14.3684 2.77317 16.8027 3.56637C16.7678 3.60093 16.7313 3.63322 16.6968 3.66835C12.7021 7.70255 12.7968 14.5951 12.8067 15.0165C12.8063 15.179 12.82 15.4092 12.8386 15.7258C12.9074 16.8851 13.0354 19.0427 12.6935 21.4861C12.376 23.7568 13.076 25.9791 14.6136 27.5836C14.7714 27.7479 14.9373 27.9044 15.1106 28.0523C14.4262 28.7853 12.9387 30.4063 11.3553 32.3109ZM15.624 26.6153C14.3848 25.3221 13.8219 23.5234 14.0796 21.6798C14.4404 19.0987 14.3073 16.8507 14.2357 15.643C14.2256 15.474 14.2167 15.3258 14.2116 15.2091C14.7951 14.6916 17.4995 13.2427 19.4281 13.6845C20.3081 13.886 20.8444 14.4853 21.0673 15.5161C22.2211 20.8528 21.22 23.0771 20.4156 24.8646C20.2498 25.2328 20.0931 25.5809 19.9594 25.941L19.8557 26.2194C19.5933 26.9231 19.3491 27.5775 19.1977 28.1989C17.8802 28.1951 16.5986 27.6322 15.624 26.6151V26.6153ZM15.8263 33.8125C15.4416 33.7164 15.0956 33.5495 14.8926 33.411C15.0621 33.3313 15.3639 33.2226 15.8872 33.1148C18.4199 32.5935 18.8111 32.2255 19.6653 31.141C19.8611 30.8922 20.0831 30.6104 20.3905 30.2671L20.3909 30.2667C20.8487 29.754 21.0582 29.8409 21.438 29.9985C21.7458 30.1258 22.0457 30.5116 22.1672 30.9363C22.2247 31.1368 22.2893 31.5173 22.0779 31.8136C20.2937 34.3119 17.6936 34.2798 15.8263 33.8125ZM29.081 46.1468C25.9826 46.8106 24.8856 45.2297 24.1626 43.4225C23.6961 42.2557 23.4667 36.9944 23.6294 31.1841C23.6315 31.1068 23.6205 31.0322 23.5992 30.9619C23.5802 30.8231 23.5513 30.6859 23.5126 30.5513C23.2707 29.7059 22.6811 28.9987 21.9737 28.7055C21.6926 28.5891 21.1769 28.3755 20.557 28.534C20.6892 27.9894 20.9184 27.3743 21.167 26.7084L21.2713 26.4283C21.3886 26.1125 21.536 25.7853 21.6917 25.4389C22.5335 23.5688 23.6864 21.0072 22.4351 15.2204C21.9665 13.0529 20.4013 11.9944 18.0287 12.2404C16.6064 12.3875 15.305 12.9614 14.6559 13.2905C14.5164 13.3611 14.3888 13.4295 14.2695 13.496C14.4507 11.3121 15.1351 7.23085 17.6953 4.64861C19.3073 3.02307 21.4541 2.22018 24.0698 2.26348C29.2236 2.34779 32.5286 4.9927 34.3938 7.19685C36.0011 9.09603 36.8714 11.0093 37.2187 12.0412C34.6067 11.7755 32.8302 12.2911 31.9297 13.5786C29.9705 16.3792 33.0015 21.8149 34.4582 24.4273C34.7254 24.906 34.9559 25.3198 35.0285 25.4957C35.5028 26.6453 36.1169 27.4129 36.5653 27.9731C36.7028 28.1448 36.8361 28.3113 36.9375 28.4568C36.1464 28.6848 34.7254 29.2118 34.8549 31.8459C34.7504 33.1676 34.0077 39.3556 33.6304 41.5419C33.1323 44.4303 32.0695 45.506 29.081 46.1469V46.1468ZM42.0139 31.3468C41.2049 31.7222 39.8511 32.0039 38.5651 32.0644C37.1447 32.1309 36.4215 31.9053 36.2514 31.7665C36.1716 30.125 36.7825 29.9535 37.4291 29.772C37.5307 29.7435 37.6299 29.7156 37.7256 29.6822C37.785 29.7306 37.8502 29.7786 37.9216 29.8257C39.0632 30.5792 41.0995 30.6605 43.9744 30.0671L44.0059 30.0608C43.6181 30.4233 42.9546 30.9099 42.0139 31.3468Z" fill="white"/>
</svg>
